<svg xmlns="http://www.w3.org/2000/svg" xmlns:xlink="http://www.w3.org/1999/xlink" width="210.7421875" height="177.0361328125"><path d="M73.32 80.42L73.32 80.42L73.32 80.42Q84.93 80.42 91.66 86.96L91.66 86.96L91.66 86.96Q98.39 93.50 98.39 105.18L98.39 105.18L98.39 105.18Q98.39 115.78 93.85 123.72L93.85 123.72L93.85 123.72Q89.31 131.65 80.62 135.94L80.62 135.94L80.62 135.94Q71.92 140.22 59.67 140.22L59.67 140.22L59.67 140.22Q52.24 140.22 45.80 138.76L45.80 138.76L45.80 138.76Q39.36 137.30 35.48 135.08L35.48 135.08L35.48 118.00L35.48 118.00Q46.53 124.29 57.83 124.29L57.83 124.29L57.83 124.29Q67.60 124.29 73.13 119.78L73.13 119.78L73.13 119.78Q78.65 115.27 78.65 107.47L78.65 107.47L78.65 107.47Q78.65 101.50 75.00 98.52L75.00 98.52L75.00 98.52Q71.35 95.53 64.43 95.53L64.43 95.53L64.43 95.53Q57.95 95.53 50.91 97.63L50.91 97.63L44.31 92.68L57.45 46.15L105.37 46.15L101.88 62.78L70.84 62.78L65.25 81.38L65.25 81.38Q69.82 80.42 73.32 80.42ZM173.86 104.48L170.63 119.72L159.83 119.72L155.83 138.95L137.24 138.95L141.24 119.72L103.78 119.72L106.83 104.86L155.71 46.15L175.45 46.15L163.07 104.48L173.86 104.48M124.73 104.48L144.47 104.48L148.15 88.74L148.15 88.74Q148.92 85.06 150.69 78.33L150.69 78.33L150.69 78.33Q152.47 71.60 153.36 69.38L153.36 69.38L152.98 69.38L152.98 69.38Q150.76 73.38 144.60 80.87L144.60 80.87L124.73 104.48Z"/></svg>